<svg width="848" height="200" viewBox="0 0 848 200" fill="none" xmlns="http://www.w3.org/2000/svg">
<g clip-path="url(#clip0_26_2)">
<path d="M11.25 122V31.8125H33.3125L72.1875 88.0625L54.8125 77.9375H65.625V31.8125H92.125V122H70.3125L31.25 65L48.5625 75.125H37.75V122H11.25ZM147.812 123.625C138.521 123.625 130.479 121.75 123.688 118C116.896 114.208 111.646 108.812 107.938 101.812C104.271 94.8125 102.438 86.5208 102.438 76.9375V76.8125C102.438 67.2292 104.292 58.9583 108 52C111.708 45 116.958 39.625 123.75 35.875C130.542 32.0833 138.562 30.1875 147.812 30.1875C157.146 30.1875 165.208 32.0833 172 35.875C178.833 39.6667 184.083 45.0417 187.75 52C191.458 58.9583 193.312 67.2292 193.312 76.8125V76.9375C193.312 86.5208 191.458 94.8125 187.75 101.812C184.083 108.771 178.854 114.146 172.062 117.938C165.271 121.729 157.188 123.625 147.812 123.625ZM147.812 102C151.646 102 154.938 100.979 157.688 98.9375C160.438 96.8958 162.562 94 164.062 90.25C165.562 86.5 166.312 82.0625 166.312 76.9375V76.8125C166.312 71.6458 165.542 67.2083 164 63.5C162.5 59.75 160.354 56.875 157.562 54.875C154.812 52.8333 151.562 51.8125 147.812 51.8125C144.146 51.8125 140.917 52.8125 138.125 54.8125C135.375 56.8125 133.229 59.6875 131.688 63.4375C130.188 67.1458 129.438 71.6042 129.438 76.8125V76.9375C129.438 82.1042 130.188 86.5625 131.688 90.3125C133.229 94.0625 135.375 96.9583 138.125 99C140.875 101 144.104 102 147.812 102ZM246.812 123.625C237.521 123.625 229.479 121.75 222.688 118C215.896 114.208 210.646 108.812 206.938 101.812C203.271 94.8125 201.438 86.5208 201.438 76.9375V76.8125C201.438 67.2292 203.292 58.9583 207 52C210.708 45 215.958 39.625 222.75 35.875C229.542 32.0833 237.562 30.1875 246.812 30.1875C256.146 30.1875 264.208 32.0833 271 35.875C277.833 39.6667 283.083 45.0417 286.75 52C290.458 58.9583 292.312 67.2292 292.312 76.8125V76.9375C292.312 86.5208 290.458 94.8125 286.75 101.812C283.083 108.771 277.854 114.146 271.062 117.938C264.271 121.729 256.188 123.625 246.812 123.625ZM246.812 102C250.646 102 253.938 100.979 256.688 98.9375C259.438 96.8958 261.562 94 263.062 90.25C264.562 86.5 265.312 82.0625 265.312 76.9375V76.8125C265.312 71.6458 264.542 67.2083 263 63.5C261.5 59.75 259.354 56.875 256.562 54.875C253.812 52.8333 250.562 51.8125 246.812 51.8125C243.146 51.8125 239.917 52.8125 237.125 54.8125C234.375 56.8125 232.229 59.6875 230.688 63.4375C229.188 67.1458 228.438 71.6042 228.438 76.8125V76.9375C228.438 82.1042 229.188 86.5625 230.688 90.3125C232.229 94.0625 234.375 96.9583 237.125 99C239.875 101 243.104 102 246.812 102ZM302.625 122V31.8125H343.25C351 31.8125 357.521 33 362.812 35.375C368.146 37.75 372.188 41.2292 374.938 45.8125C377.688 50.3958 379.062 56.0208 379.062 62.6875V62.8125C379.062 68.4375 377.729 73.5833 375.062 78.25C372.438 82.9167 368.938 86.3125 364.562 88.4375L381.688 122H352.062L337.812 92.375C337.646 92.375 337.458 92.375 337.25 92.375C337.042 92.375 336.833 92.375 336.625 92.375H329.125V122H302.625ZM329.125 73.6875H340.188C343.771 73.6875 346.646 72.6667 348.812 70.625C350.979 68.5833 352.062 65.9167 352.062 62.625V62.5C352.062 59.2083 350.958 56.5417 348.75 54.5C346.542 52.4167 343.688 51.375 340.188 51.375H329.125V73.6875ZM440.125 99.1875V70.0625H441.25L469.125 31.8125H496.938L466.625 72.6875H459.812L440.125 99.1875ZM414.25 122V31.8125H440.75V122H414.25ZM467.5 122L442.312 79.5625L461.688 62.8125L498.312 122H467.5ZM504.625 122V31.8125H568.25V52.8125H531.125V67.1875H565.938V86.6875H531.125V101H568.25V122H504.625ZM593.875 122V103.875H618.438C622.521 103.875 625.667 103.042 627.875 101.375C630.125 99.6667 631.25 97.2292 631.25 94.0625V93.9375C631.25 91.8958 630.729 90.1458 629.688 88.6875C628.688 87.2292 627.188 86.125 625.188 85.375C623.229 84.625 620.792 84.25 617.875 84.25H593.875V68.3125H616.625C620.583 68.3125 623.583 67.4792 625.625 65.8125C627.667 64.1042 628.688 61.7917 628.688 58.875V58.75C628.688 56.0417 627.708 53.8958 625.75 52.3125C623.792 50.7292 621.125 49.9375 617.75 49.9375H593.875V31.8125H624.938C631.146 31.8125 636.438 32.7292 640.812 34.5625C645.229 36.3542 648.604 38.9583 650.938 42.375C653.271 45.75 654.438 49.8125 654.438 54.5625V54.6875C654.438 58.1875 653.625 61.3333 652 64.125C650.375 66.9167 648.146 69.2083 645.312 71C642.521 72.75 639.375 73.8542 635.875 74.3125V74.8125C639.917 74.8958 643.625 75.875 647 77.75C650.417 79.625 653.146 82.1458 655.188 85.3125C657.229 88.4375 658.25 91.9583 658.25 95.875V96C658.25 101.208 656.938 105.771 654.312 109.688C651.688 113.562 648 116.583 643.25 118.75C638.5 120.917 632.896 122 626.438 122H593.875ZM580.625 122V31.8125H607.125V122H580.625ZM662.625 122L692.062 31.8125H717.062V53.3125H708.438L690.5 122H662.625ZM681.125 104.062L686.625 85.375H730.75L736.25 104.062H681.125ZM726.875 122L708.938 53.3125V31.8125H725.312L754.75 122H726.875ZM776.188 97.375V77.8125H796.875C801.25 77.8125 804.667 76.7292 807.125 74.5625C809.625 72.3542 810.875 69.1042 810.875 64.8125V64.6875C810.875 60.3542 809.625 57.125 807.125 55C804.667 52.8333 801.25 51.75 796.875 51.75H776.188V31.8125H803.188C810.229 31.8125 816.312 33.1667 821.438 35.875C826.604 38.5833 830.583 42.3958 833.375 47.3125C836.208 52.2292 837.625 58.0208 837.625 64.6875V64.8125C837.625 71.4792 836.208 77.25 833.375 82.125C830.583 87 826.604 90.7708 821.438 93.4375C816.312 96.0625 810.229 97.375 803.188 97.375H776.188ZM762.875 122V31.8125H789.375V122H762.875Z" fill="black"/>
<path d="M11.2324 171V145.635H21.3574C23.1621 145.635 24.7148 145.957 26.0156 146.602C27.3164 147.234 28.3184 148.143 29.0215 149.326C29.7246 150.51 30.0762 151.916 30.0762 153.545V153.58C30.0762 155.291 29.6426 156.791 28.7754 158.08C27.9199 159.369 26.7598 160.283 25.2949 160.822L30.832 171H25.6641L20.6719 161.508C20.6367 161.508 20.5957 161.508 20.5488 161.508C20.5137 161.508 20.4785 161.508 20.4434 161.508H15.7676V171H11.2324ZM15.7676 157.922H20.8828C22.3242 157.922 23.4434 157.547 24.2402 156.797C25.0371 156.035 25.4355 154.975 25.4355 153.615V153.58C25.4355 152.256 25.0195 151.213 24.1875 150.451C23.3555 149.678 22.2246 149.291 20.7949 149.291H15.7676V157.922ZM37.3324 171V145.635H53.7504V149.449H41.8676V156.287H53.1V159.943H41.8676V167.186H53.7504V171H37.3324ZM70.2 171.439C68.2547 171.439 66.5555 171.146 65.1023 170.561C63.6492 169.975 62.5008 169.137 61.657 168.047C60.825 166.957 60.3563 165.656 60.2508 164.145L60.2332 163.881H64.5574L64.5926 164.092C64.7215 164.818 65.0379 165.445 65.5418 165.973C66.0457 166.5 66.7078 166.91 67.5281 167.203C68.3602 167.484 69.3035 167.625 70.3582 167.625C71.4246 167.625 72.3445 167.479 73.118 167.186C73.9031 166.893 74.5066 166.477 74.9285 165.938C75.3504 165.387 75.5613 164.748 75.5613 164.021V164.004C75.5613 163.055 75.2039 162.305 74.4891 161.754C73.7859 161.203 72.6141 160.752 70.9734 160.4L68.2488 159.838C65.7645 159.322 63.9012 158.479 62.659 157.307C61.4168 156.123 60.7957 154.588 60.7957 152.701V152.684C60.8074 151.184 61.2117 149.877 62.0086 148.764C62.8172 147.639 63.9305 146.766 65.3484 146.145C66.7664 145.512 68.3836 145.195 70.2 145.195C72.0398 145.195 73.6512 145.5 75.034 146.109C76.4168 146.719 77.5008 147.568 78.2859 148.658C79.0828 149.748 79.5223 151.014 79.6043 152.455L79.6219 152.754H75.2977L75.2625 152.525C75.157 151.787 74.8816 151.16 74.4363 150.645C73.991 150.117 73.4051 149.713 72.6785 149.432C71.952 149.15 71.1141 149.01 70.1648 149.01C69.1805 149.01 68.325 149.156 67.5984 149.449C66.8836 149.73 66.327 150.129 65.9285 150.645C65.5418 151.16 65.3484 151.758 65.3484 152.438V152.455C65.3484 153.346 65.7059 154.072 66.4207 154.635C67.1473 155.186 68.2723 155.619 69.7957 155.936L72.5203 156.498C75.1688 157.049 77.0965 157.893 78.3035 159.029C79.5105 160.154 80.1141 161.707 80.1141 163.688V163.705C80.1141 165.275 79.7156 166.641 78.9188 167.801C78.1336 168.961 76.9969 169.857 75.5086 170.49C74.032 171.123 72.2625 171.439 70.2 171.439ZM92.6086 171V149.449H85.0148V145.635H104.702V149.449H97.1262V171H92.6086ZM106.211 171L115.281 145.635H119.095V150.152H117.777L110.957 171H106.211ZM110.798 164.443L112.011 160.945H123.63L124.843 164.443H110.798ZM124.685 171L117.865 150.152V145.635H120.379L129.431 171H124.685ZM145.635 171.439C143.49 171.439 141.639 171.047 140.08 170.262C138.521 169.477 137.314 168.381 136.459 166.975C135.615 165.568 135.193 163.928 135.193 162.053V145.635H139.729V161.684C139.729 163.441 140.244 164.854 141.275 165.92C142.307 166.986 143.76 167.52 145.635 167.52C147.521 167.52 148.975 166.986 149.994 165.92C151.014 164.854 151.523 163.441 151.523 161.684V145.635H156.041V162.053C156.041 163.916 155.619 165.557 154.775 166.975C153.943 168.381 152.748 169.477 151.189 170.262C149.631 171.047 147.779 171.439 145.635 171.439ZM164.141 171V145.635H174.266C176.071 145.635 177.623 145.957 178.924 146.602C180.225 147.234 181.227 148.143 181.93 149.326C182.633 150.51 182.985 151.916 182.985 153.545V153.58C182.985 155.291 182.551 156.791 181.684 158.08C180.829 159.369 179.668 160.283 178.204 160.822L183.741 171H178.573L173.58 161.508C173.545 161.508 173.504 161.508 173.457 161.508C173.422 161.508 173.387 161.508 173.352 161.508H168.676V171H164.141ZM168.676 157.922H173.791C175.233 157.922 176.352 157.547 177.149 156.797C177.946 156.035 178.344 154.975 178.344 153.615V153.58C178.344 152.256 177.928 151.213 177.096 150.451C176.264 149.678 175.133 149.291 173.704 149.291H168.676V157.922ZM188.483 171L197.554 145.635H201.368V150.152H200.05L193.229 171H188.483ZM193.071 164.443L194.284 160.945H205.903L207.116 164.443H193.071ZM206.958 171L200.137 150.152V145.635H202.651L211.704 171H206.958ZM218.029 171V145.635H222.107L236.943 166.975L232.654 163.424H234.57V145.635H239.07V171H235.027L220.173 149.607L224.462 153.141H222.529V171H218.029ZM253.357 171V149.449H245.763V145.635H265.451V149.449H257.875V171H253.357ZM272.162 171V145.635H288.58V149.449H276.697V156.287H287.93V159.943H276.697V167.186H288.58V171H272.162ZM332.037 162.615V158.959H338.418C340.058 158.959 341.324 158.543 342.214 157.711C343.117 156.867 343.568 155.684 343.568 154.16V154.125C343.568 152.59 343.117 151.406 342.214 150.574C341.324 149.742 340.058 149.326 338.418 149.326H332.037V145.635H339.543C341.254 145.635 342.754 145.986 344.043 146.689C345.343 147.393 346.357 148.383 347.084 149.66C347.81 150.926 348.173 152.408 348.173 154.107V154.143C348.173 155.83 347.81 157.312 347.084 158.59C346.357 159.855 345.343 160.846 344.043 161.561C342.754 162.264 341.254 162.615 339.543 162.615H332.037ZM329.769 171V145.635H334.304V171H329.769ZM355.096 171V145.635H359.631V171H355.096ZM367.08 171V167.977L380.58 149.537V149.449H367.45V145.635H386.03V148.641L372.6 167.098V167.186H386.364V171H367.08ZM393.216 171V167.977L406.716 149.537V149.449H393.585V145.635H412.165V148.641L398.735 167.098V167.186H412.499V171H393.216ZM418.208 171L427.279 145.635H431.093V150.152H429.775L422.954 171H418.208ZM422.796 164.443L424.009 160.945H435.628L436.841 164.443H422.796ZM436.683 171L429.862 150.152V145.635H432.376L441.429 171H436.683ZM456.349 171.439C454.404 171.439 452.705 171.146 451.252 170.561C449.798 169.975 448.65 169.137 447.806 168.047C446.974 166.957 446.505 165.656 446.4 164.145L446.382 163.881H450.707L450.742 164.092C450.871 164.818 451.187 165.445 451.691 165.973C452.195 166.5 452.857 166.91 453.677 167.203C454.509 167.484 455.453 167.625 456.507 167.625C457.574 167.625 458.494 167.479 459.267 167.186C460.052 166.893 460.656 166.477 461.078 165.938C461.5 165.387 461.711 164.748 461.711 164.021V164.004C461.711 163.055 461.353 162.305 460.638 161.754C459.935 161.203 458.763 160.752 457.123 160.4L454.398 159.838C451.914 159.322 450.05 158.479 448.808 157.307C447.566 156.123 446.945 154.588 446.945 152.701V152.684C446.957 151.184 447.361 149.877 448.158 148.764C448.966 147.639 450.08 146.766 451.498 146.145C452.916 145.512 454.533 145.195 456.349 145.195C458.189 145.195 459.8 145.5 461.183 146.109C462.566 146.719 463.65 147.568 464.435 148.658C465.232 149.748 465.671 151.014 465.754 152.455L465.771 152.754H461.447L461.412 152.525C461.306 151.787 461.031 151.16 460.586 150.645C460.14 150.117 459.554 149.713 458.828 149.432C458.101 149.15 457.263 149.01 456.314 149.01C455.33 149.01 454.474 149.156 453.748 149.449C453.033 149.73 452.476 150.129 452.078 150.645C451.691 151.16 451.498 151.758 451.498 152.438V152.455C451.498 153.346 451.855 154.072 452.57 154.635C453.296 155.186 454.421 155.619 455.945 155.936L458.67 156.498C461.318 157.049 463.246 157.893 464.453 159.029C465.66 160.154 466.263 161.707 466.263 163.688V163.705C466.263 165.275 465.865 166.641 465.068 167.801C464.283 168.961 463.146 169.857 461.658 170.49C460.181 171.123 458.412 171.439 456.349 171.439ZM506.907 171V145.635H511.443V156.182H523.782V145.635H528.3V171H523.782V159.996H511.443V171H506.907ZM534.625 171L543.695 145.635H547.509V150.152H546.191L539.371 171H534.625ZM539.213 164.443L540.425 160.945H552.045L553.257 164.443H539.213ZM553.099 171L546.279 150.152V145.635H548.793L557.845 171H553.099ZM564.17 171V145.635H569.408L577.178 165.023H577.301L585.07 145.635H590.309V171H586.23V152.947H584.139L588.762 146.338L578.777 171H575.701L565.717 146.338L570.34 152.947H568.248V171H564.17ZM600.659 171V167.484H607.989C609.653 167.484 610.918 167.15 611.786 166.482C612.664 165.814 613.104 164.842 613.104 163.564V163.529C613.104 162.674 612.899 161.959 612.489 161.385C612.09 160.799 611.493 160.365 610.696 160.084C609.899 159.791 608.909 159.645 607.725 159.645H600.659V156.357H607.004C608.645 156.357 609.893 156.035 610.748 155.391C611.604 154.746 612.032 153.82 612.032 152.613V152.578C612.032 151.488 611.657 150.645 610.907 150.047C610.168 149.449 609.125 149.15 607.778 149.15H600.659V145.635H608.92C610.467 145.635 611.803 145.898 612.928 146.426C614.065 146.941 614.944 147.674 615.565 148.623C616.198 149.572 616.514 150.691 616.514 151.98V152.016C616.514 152.93 616.303 153.785 615.881 154.582C615.471 155.367 614.903 156.029 614.176 156.568C613.45 157.096 612.635 157.424 611.733 157.553V157.641C612.916 157.746 613.959 158.074 614.862 158.625C615.764 159.176 616.467 159.896 616.971 160.787C617.475 161.666 617.727 162.668 617.727 163.793V163.828C617.727 165.305 617.375 166.582 616.672 167.66C615.969 168.727 614.967 169.553 613.666 170.139C612.377 170.713 610.83 171 609.026 171H600.659ZM598.391 171V145.635H602.926V171H598.391ZM635.003 171.439C632.858 171.439 631.007 171.047 629.448 170.262C627.889 169.477 626.682 168.381 625.827 166.975C624.983 165.568 624.561 163.928 624.561 162.053V145.635H629.096V161.684C629.096 163.441 629.612 164.854 630.643 165.92C631.675 166.986 633.128 167.52 635.003 167.52C636.889 167.52 638.343 166.986 639.362 165.92C640.382 164.854 640.891 163.441 640.891 161.684V145.635H645.409V162.053C645.409 163.916 644.987 165.557 644.143 166.975C643.311 168.381 642.116 169.477 640.557 170.262C638.999 171.047 637.147 171.439 635.003 171.439ZM653.509 171V145.635H663.634C665.439 145.635 666.991 145.957 668.292 146.602C669.593 147.234 670.595 148.143 671.298 149.326C672.001 150.51 672.353 151.916 672.353 153.545V153.58C672.353 155.291 671.919 156.791 671.052 158.08C670.196 159.369 669.036 160.283 667.571 160.822L673.109 171H667.941L662.948 161.508C662.913 161.508 662.872 161.508 662.825 161.508C662.79 161.508 662.755 161.508 662.72 161.508H658.044V171H653.509ZM658.044 157.922H663.159C664.601 157.922 665.72 157.547 666.517 156.797C667.314 156.035 667.712 154.975 667.712 153.615V153.58C667.712 152.256 667.296 151.213 666.464 150.451C665.632 149.678 664.501 149.291 663.071 149.291H658.044V157.922ZM690.754 171.439C688.293 171.439 686.16 170.906 684.355 169.84C682.562 168.773 681.179 167.256 680.207 165.287C679.234 163.307 678.748 160.951 678.748 158.221V158.203C678.748 155.508 679.234 153.193 680.207 151.26C681.179 149.314 682.556 147.82 684.338 146.777C686.13 145.723 688.24 145.195 690.666 145.195C692.67 145.195 694.427 145.553 695.939 146.268C697.451 146.971 698.681 147.938 699.63 149.168C700.591 150.387 701.23 151.775 701.547 153.334L701.617 153.633H697.029L696.959 153.439C696.478 152.08 695.699 151.02 694.621 150.258C693.554 149.496 692.242 149.115 690.683 149.115C689.16 149.115 687.853 149.473 686.763 150.188C685.673 150.902 684.836 151.939 684.25 153.299C683.664 154.646 683.371 156.27 683.371 158.168V158.186C683.371 160.119 683.67 161.789 684.267 163.195C684.877 164.59 685.738 165.662 686.851 166.412C687.964 167.15 689.283 167.52 690.806 167.52C692.084 167.52 693.209 167.273 694.181 166.781C695.166 166.289 695.933 165.598 696.484 164.707C697.047 163.816 697.339 162.779 697.363 161.596L697.38 161.209H691.088V157.676H701.81V160.418C701.81 162.715 701.371 164.684 700.492 166.324C699.613 167.965 698.347 169.23 696.695 170.121C695.054 171 693.074 171.439 690.754 171.439ZM719.561 171.439C717.416 171.439 715.564 171.047 714.006 170.262C712.447 169.477 711.24 168.381 710.385 166.975C709.541 165.568 709.119 163.928 709.119 162.053V145.635H713.654V161.684C713.654 163.441 714.17 164.854 715.201 165.92C716.232 166.986 717.686 167.52 719.561 167.52C721.447 167.52 722.9 166.986 723.92 165.92C724.939 164.854 725.449 163.441 725.449 161.684V145.635H729.967V162.053C729.967 163.916 729.545 165.557 728.701 166.975C727.869 168.381 726.674 169.477 725.115 170.262C723.557 171.047 721.705 171.439 719.561 171.439ZM738.067 171V145.635H754.485V149.449H742.602V156.287H753.834V159.943H742.602V167.186H754.485V171H738.067ZM770.934 171.439C768.989 171.439 767.29 171.146 765.837 170.561C764.384 169.975 763.235 169.137 762.391 168.047C761.559 166.957 761.091 165.656 760.985 164.145L760.968 163.881H765.292L765.327 164.092C765.456 164.818 765.772 165.445 766.276 165.973C766.78 166.5 767.442 166.91 768.263 167.203C769.095 167.484 770.038 167.625 771.093 167.625C772.159 167.625 773.079 167.479 773.852 167.186C774.638 166.893 775.241 166.477 775.663 165.938C776.085 165.387 776.296 164.748 776.296 164.021V164.004C776.296 163.055 775.938 162.305 775.223 161.754C774.52 161.203 773.348 160.752 771.708 160.4L768.983 159.838C766.499 159.322 764.636 158.479 763.393 157.307C762.151 156.123 761.53 154.588 761.53 152.701V152.684C761.542 151.184 761.946 149.877 762.743 148.764C763.552 147.639 764.665 146.766 766.083 146.145C767.501 145.512 769.118 145.195 770.934 145.195C772.774 145.195 774.386 145.5 775.768 146.109C777.151 146.719 778.235 147.568 779.02 148.658C779.817 149.748 780.257 151.014 780.339 152.455L780.356 152.754H776.032L775.997 152.525C775.891 151.787 775.616 151.16 775.171 150.645C774.725 150.117 774.139 149.713 773.413 149.432C772.686 149.15 771.848 149.01 770.899 149.01C769.915 149.01 769.059 149.156 768.333 149.449C767.618 149.73 767.061 150.129 766.663 150.645C766.276 151.16 766.083 151.758 766.083 152.438V152.455C766.083 153.346 766.44 154.072 767.155 154.635C767.882 155.186 769.007 155.619 770.53 155.936L773.255 156.498C775.903 157.049 777.831 157.893 779.038 159.029C780.245 160.154 780.848 161.707 780.848 163.688V163.705C780.848 165.275 780.45 166.641 779.653 167.801C778.868 168.961 777.731 169.857 776.243 170.49C774.766 171.123 772.997 171.439 770.934 171.439ZM785.767 171L794.837 145.635H798.652V150.152H797.333L790.513 171H785.767ZM790.355 164.443L791.568 160.945H803.187L804.4 164.443H790.355ZM804.241 171L797.421 150.152V145.635H799.935L808.987 171H804.241ZM823.908 171.439C821.963 171.439 820.263 171.146 818.81 170.561C817.357 169.975 816.209 169.137 815.365 168.047C814.533 166.957 814.064 165.656 813.959 164.145L813.941 163.881H818.265L818.3 164.092C818.429 164.818 818.746 165.445 819.25 165.973C819.754 166.5 820.416 166.91 821.236 167.203C822.068 167.484 823.011 167.625 824.066 167.625C825.132 167.625 826.052 167.479 826.826 167.186C827.611 166.893 828.214 166.477 828.636 165.938C829.058 165.387 829.269 164.748 829.269 164.021V164.004C829.269 163.055 828.912 162.305 828.197 161.754C827.494 161.203 826.322 160.752 824.681 160.4L821.957 159.838C819.472 159.322 817.609 158.479 816.367 157.307C815.125 156.123 814.504 154.588 814.504 152.701V152.684C814.515 151.184 814.92 149.877 815.716 148.764C816.525 147.639 817.638 146.766 819.056 146.145C820.474 145.512 822.091 145.195 823.908 145.195C825.748 145.195 827.359 145.5 828.742 146.109C830.125 146.719 831.209 147.568 831.994 148.658C832.791 149.748 833.23 151.014 833.312 152.455L833.33 152.754H829.005L828.97 152.525C828.865 151.787 828.589 151.16 828.144 150.645C827.699 150.117 827.113 149.713 826.386 149.432C825.66 149.15 824.822 149.01 823.873 149.01C822.888 149.01 822.033 149.156 821.306 149.449C820.591 149.73 820.035 150.129 819.636 150.645C819.25 151.16 819.056 151.758 819.056 152.438V152.455C819.056 153.346 819.414 154.072 820.129 154.635C820.855 155.186 821.98 155.619 823.504 155.936L826.228 156.498C828.877 157.049 830.804 157.893 832.011 159.029C833.218 160.154 833.822 161.707 833.822 163.688V163.705C833.822 165.275 833.423 166.641 832.627 167.801C831.841 168.961 830.705 169.857 829.216 170.49C827.74 171.123 825.97 171.439 823.908 171.439Z" fill="black"/>
<path d="M306.96 177.152V145.635H310.845V177.152H306.96ZM484.098 177.152V145.635H487.983V177.152H484.098Z" fill="#720919"/>
<rect x="838" width="10" height="200" fill="#720919"/>
<rect width="10" height="200" fill="#720919"/>
</g>
<defs>
<clipPath id="clip0_26_2">
<rect width="848" height="200" fill="white"/>
</clipPath>
</defs>
</svg>
